<?xml version="1.0" encoding="iso-8859-1"?>
<!-- Generator: Adobe Illustrator 19.0.0, SVG Export Plug-In . SVG Version: 6.00 Build 0)  -->
<svg version="1.1" id="Layer_1" xmlns="http://www.w3.org/2000/svg" xmlns:xlink="http://www.w3.org/1999/xlink" x="0px" y="0px"
	 viewBox="0 0 440 440" style="enable-background:new 0 0 440 440;" xml:space="preserve">
<g>
	<path d="M166.62,119.397c-24.813,0-45,20.187-45,45s20.187,45,45,45s45-20.187,45-45S191.434,119.397,166.62,119.397z"/>
	<path d="M326.984,211.853c4.067-14.39,6.256-29.559,6.256-45.234C333.24,74.745,258.494,0,166.62,0C74.745,0,0,74.745,0,166.619
		c0,38.93,13.421,74.781,35.878,103.177L166.62,434.174l48.641-61.155c-2.688-10.373-4.12-21.247-4.12-32.449
		C211.141,273.791,261.978,218.665,326.984,211.853z M91.62,164.397c0-41.355,33.645-75,75-75s75,33.645,75,75s-33.645,75-75,75
		S91.62,205.752,91.62,164.397z"/>
	<path d="M340.57,241.141c-54.826,0-99.43,44.604-99.43,99.43c0,54.825,44.604,99.429,99.43,99.429S440,395.396,440,340.571
		C440,285.745,395.396,241.141,340.57,241.141z M377.743,389.018l-37.173-16.614l-37.173,16.614l4.314-40.488l-27.289-30.219
		l39.84-8.408l20.308-35.291l20.308,35.291l39.84,8.408l-27.289,30.219L377.743,389.018z"/>
</g>
<g>
</g>
<g>
</g>
<g>
</g>
<g>
</g>
<g>
</g>
<g>
</g>
<g>
</g>
<g>
</g>
<g>
</g>
<g>
</g>
<g>
</g>
<g>
</g>
<g>
</g>
<g>
</g>
<g>
</g>
</svg>
