<?xml version="1.0" encoding="utf-8"?>
<!-- Generator: Adobe Illustrator 19.1.0, SVG Export Plug-In . SVG Version: 6.00 Build 0)  -->
<svg version="1.1" id="Layer_1" xmlns="http://www.w3.org/2000/svg" xmlns:xlink="http://www.w3.org/1999/xlink" x="0px" y="0px"
	 width="335px" height="200px" viewBox="0 0 335 200" style="enable-background:new 0 0 335 200;" xml:space="preserve">
<style type="text/css">
	.st0{opacity:0.34;}
	.st1{fill:#eee;}
	.st2{fill:#fff;}
	.st3{fill:#ddd;}
	.st4{fill:none;stroke:#FFFFFF;stroke-width:3;stroke-linecap:round;stroke-miterlimit:10;}
	.st5{fill:none;stroke:#FFFFFF;stroke-width:3;stroke-linecap:round;stroke-linejoin:round;stroke-miterlimit:10;}
	.st6{fill:none;stroke:#FFFFFF;stroke-width:2.8879;stroke-linecap:round;stroke-miterlimit:10;}
	.st7{fill:none;stroke:#FFFFFF;stroke-width:3;stroke-linejoin:round;stroke-miterlimit:10;}
	.st8{fill:#FFFFFF;}
	.st9{fill:none;stroke:#FFFFFF;stroke-width:7;stroke-miterlimit:10;}
	.st10{fill:none;stroke:#FFFFFF;stroke-miterlimit:10;}
	.st11{fill:none;stroke:#bbb;stroke-miterlimit:10;}
	.st12{fill:#ccc;}
</style>
<g id="Ay5naR.tif" class="st0">

		<image style="overflow:visible;" width="1296" height="705" id="Layer_0_1_" xlink:href="2D1C840303F8FB83.png"  transform="matrix(1 0 0 1 -479 -243.2183)">
	</image>
</g>
<rect x="-12" y="-38.5" class="st1" width="357.9" height="277"/>
<path class="st2" d="M188.7,226.7c0,0-9.5-22.3,7.9-63.3c0,0,8-6.3,0.5-9.7c-7.5-3.3-11.8-4.7-11.8-4.7l1.6-4.7
	c0,0,14.1,9.1,15.4,5.8c1.3-3.3,3.3-30.2,11.3-41.5s5-18.9,11.7-20.5c6.7-1.7,15.4-6.4,15.4-6.4l-19.1-3.7L169,152.3l-19.5,58.4
	L188.7,226.7z"/>
<path class="st3" d="M-3.3-4.3V203H175c0,0,3.9-51.9,21.6-79.4s27.7-45.6,27.7-45.6l14.3,4.9l-1.7,6.5l64.7,27.3v3.4l1.7,0.5l-6,14
	l3.3,1.8l9-19.7l-12.3-4.1l0.3-2.3l-6.3-3.8l1.3-3.2l8.3,3.2l5.7-3.2l14.3,4.9l9.7-21.6l-4.7-0.3l-31.7,13L238,77.9L249,56l2.7,0.6
	l7-13.1l-4-2.9l4-0.7l1.7-2.7l-3-0.7l6-10.7l20.3,8l4.7,14h3.7l11,23.7l2-1.3l0.3-4.3l4.7-0.7L320.3,47L382,74.2l-26,60.3
	c0,0-3.7,9.5-19.7,14.8l-3.7-2.7l-4.3,3.3l3.7,6.7l-9.7,5.3l4.3,2.7c0,0,27.7-10.3,40.7-28s30.3-61,30.3-61l-48.3-22l-87-37.9
	l9-12.1l11,8l4-6.3l-8-9.7H-3.3z"/>
<path class="st4" d="M170.7,200c0,0,0.8-6.3,2.5-15.4c3-16.4,8.9-41.9,18.2-56.2c14.3-22.3,31.7-49.7,36.3-60.7
	c4.7-11,14.3-36.5,25.3-44.9"/>
<polyline class="st4" points="40.8,205.5 43.5,193.6 48.5,171.3 49.5,167 "/>
<polyline class="st5" points="66.6,213.8 76,161 85.8,178 173.2,184.6 "/>
<line class="st4" x1="157.5" y1="181.8" x2="163.3" y2="155"/>
<line class="st4" x1="142.5" y1="181.8" x2="148.8" y2="153.5"/>
<line class="st4" x1="127.8" y1="179.5" x2="130" y2="161"/>
<line class="st4" x1="113.1" y1="179.5" x2="107.1" y2="163.5"/>
<line class="st4" x1="113.1" y1="181.8" x2="110.1" y2="212.2"/>
<line class="st4" x1="127.8" y1="181.8" x2="125.8" y2="213.8"/>
<line class="st4" x1="142.5" y1="183.2" x2="139.2" y2="213.8"/>
<line class="st4" x1="157.5" y1="184.5" x2="154.5" y2="215"/>
<line class="st4" x1="91.6" y1="180.5" x2="90.5" y2="210.5"/>
<line class="st6" x1="45.1" y1="195.5" x2="69.1" y2="199.8"/>
<path class="st4" d="M188.7,130.8c0,0-28.7-13.9-34.2-19.7s-6.5-17.3-10.2-30.8S134,58.3,131,56.6"/>
<path class="st4" d="M112.2,63c0,0,4.7,11.8,8.1,22.5c2,6,3.5,11.6,3.7,14.6"/>
<path class="st4" d="M120.6,86.1c0,0,31.2-8.1,48.4,2.1s35.1,20,35.1,20"/>
<polyline class="st5" points="176.2,122.5 218.8,46.5 231,57.3 "/>
<path class="st4" d="M208.1,64.3"/>
<path class="st4" d="M149.5,99.3c0,0,14.2,7.8,24.5-5.6s26.4-41.2,26.4-41.2l-16.7-18"/>
<path class="st7" d="M161.3,84.5c0,0,8.3-32.5,30.7-39.2"/>
<polyline class="st7" points="169,63 164,59.5 140.7,70.3 "/>
<path class="st7" d="M-2,23.7l9.8-5.3c0,0,5.5,3.7,9.8,12s7,17,15.3,13.3c8.3-3.7,23.3-15,32.7-14.3c9.3,0.7,20,5.2,20,5.2"/>
<line class="st7" x1="71.3" y1="29.3" x2="84.2" y2="-3.8"/>
<polyline class="st7" points="51.8,33.4 46,21.3 21.3,34.5 "/>
<line class="st5" x1="217.8" y1="46.5" x2="200.4" y2="26.2"/>
<line class="st5" x1="247.5" y1="-5.7" x2="226.7" y2="18.3"/>
<line class="st5" x1="205.5" y1="-5.7" x2="210.5" y2="21.2"/>
<path class="st5" d="M185.7-10.3c0,0-2.8,29,2,38"/>
<line class="st5" x1="200.4" y1="53.5" x2="222.8" y2="74.8"/>
<path class="st5" d="M164,36.3c-0.5-0.5-7.7-11-5.3-42"/>
<line class="st5" x1="183.8" y1="5" x2="142" y2="4"/>
<path class="st5" d="M144.2,43.8c0,0-7.2-26.5-44.3-46"/>
<polyline class="st5" points="133.3,27.7 124,33.3 115.2,26.2 "/>
<line class="st5" x1="93.2" y1="29.8" x2="120.6" y2="53.5"/>
<path class="st5" d="M84.2,56.6c0,0,1.3-13.5,7.7-11.3c6.3,2.2,12.7,3,15,13.2"/>
<path class="st5" d="M123,89.2c0,0,16.5-3.7,17.7-1.5c1.2,2.2,0.7,8.8,1.3,11.7c0.7,2.8,0.4,7.5,7.5,6.3"/>
<path class="st5" d="M49.5,171.5c0,0,15,5.7,14-4.5"/>
<path class="st5" d="M22,122.5c0,0,7.2-11.7-3.2-24.3"/>
<line class="st5" x1="49.5" y1="88.7" x2="56.5" y2="106.8"/>
<path class="st8" d="M13.3,22.1c0,0,22.5-3.2,28.5-25.9"/>
<circle class="st8" cx="254.8" cy="18.4" r="5.6"/>
<circle class="st8" cx="66.7" cy="77.8" r="12.9"/>
<path class="st9" d="M-6.7,106.8l71.3-27.3l113-45c0,0,19.5-11.2,40.2-13.2s37-3.9,37-3.9"/>
<path class="st9" d="M70.7,70.3c0,0,29.3-61.1,49.9-86.3"/>
<line class="st9" x1="66.6" y1="86.2" x2="32.8" y2="204.2"/>
<path class="st10" d="M209.1,155.7"/>
<path class="st11" d="M185.7,147.8l-26.5-2.7l-30.3,6.2c0,0-18,5.5-21.8,4.3c-3.8-1.2-3-4.7-9-5.2c-6-0.5-13.2,1.8-13.2,1.8"/>
<path class="st11" d="M162.3,145.2c0,0-19.3-6.8-26.1-14.4c-6.8-7.6-8.7-6.6-12.2-16.8c-3.5-10.2-15.2-47.5-15.2-47.5"/>
</svg>
